# xmcd
#
# Track frame offsets:
#	150
#	17486
#	30359
#	44621
#	60399
#	71149
#	85099
#	102835
#	114991
#	130823
#	144076
#	159141
#
# Disc length: 2318 seconds
#
# Revision: 4
# Processed by: cddbd v1.5.2PL0 Copyright (c) Steve Scherf et al.
# Submitted via: EasyCDDAExtractor 15.3.0.1
#
DISCID=8a090c0c
DTITLE=Yuri - Llena De Dulzura
DYEAR=1981
DGENRE=Latin
TTITLE0=Maldita Primavera (Maledetta Primavera)
TTITLE1=Mi Timidez
TTITLE2=Rosas Y Arco Iris (Roses And Rainbows)
TTITLE3=Y Solo Tu
TTITLE4=Llena De Dulzura
TTITLE5=El Pequeño Panda De Chapultepec
TTITLE6=Este Amor No Se Toca (Questo Amore Non Si Tocca)
TTITLE7=Tu Y Yo
TTITLE8=Te Estoy Queriendo Tanto
TTITLE9=Deja
TTITLE10=Amores Solitarios (Amoureus Solitaires)
TTITLE11=Menta Y Limon (Espero Despierto La Mañana)
EXTD=
EXTT0=
EXTT1=
EXTT2=
EXTT3=
EXTT4=
EXTT5=
EXTT6=
EXTT7=
EXTT8=
EXTT9=
EXTT10=
EXTT11=
PLAYORDER=
